<svg width="119" height="31" viewBox="0 0 119 31" fill="none" xmlns="http://www.w3.org/2000/svg">
<g clip-path="url(#clip0_290_10)">
<mask id="mask0_290_10" style="mask-type:luminance" maskUnits="userSpaceOnUse" x="0" y="0" width="30" height="31">
<path d="M29.6511 0.5H0V30.4374H29.6511V0.5Z" fill="white"/>
</mask>
<g mask="url(#mask0_290_10)">
<path d="M26.0042 30.4369C25.3492 30.4369 24.6963 30.2508 24.1099 29.882C20.619 27.682 17.1115 25.2937 13.7202 22.9859C11.3501 21.3728 8.90047 19.7057 6.48174 18.1191C5.56448 17.5179 5.01457 16.5027 5.01125 15.4049C5.00792 14.3115 5.54788 13.2986 6.45519 12.6951C8.8883 11.0766 11.3479 9.48659 13.7269 7.94729C17.106 5.76163 20.6002 3.50111 24.0679 1.13048C25.181 0.369632 26.5563 0.292556 27.7458 0.925678C28.9252 1.5533 29.6545 2.7777 29.6511 4.12102L29.5825 26.8386C29.5781 28.1697 28.8843 29.3457 27.7259 29.9854C27.1815 30.2861 26.5918 30.4357 26.0042 30.4357" fill="white"/>
<path d="M3.19327 27.6619C2.63782 27.6619 2.08017 27.521 1.57562 27.2379C0.585334 26.683 -0.00330543 25.6954 1.39642e-05 24.5942L0.0597631 6.32069C0.0630825 5.24713 0.637338 4.27488 1.59443 3.71884C2.62345 3.12205 3.89809 3.12535 4.92158 3.72654L19.8235 12.4746C20.7573 13.023 21.3261 13.9776 21.3448 15.027C21.3636 16.073 20.8315 17.0431 19.9219 17.6222L4.9603 27.1465C4.42256 27.489 3.80847 27.6619 3.19327 27.6619Z" fill="#F7951E"/>
</g>
<path d="M40 26.0168V6.16547H43.6441L49.8257 17.2864L51.9041 21.5308H52.0391C51.9312 20.51 51.8232 19.4087 51.7152 18.2267C51.6072 17.0269 51.5533 15.8717 51.5533 14.7614V6.16547H54.9275V26.0168H51.2833L45.1287 14.8689L43.0502 10.6783H42.9423C43.0142 11.7171 43.1043 12.8183 43.2122 13.9824C43.3202 15.1285 43.3742 16.2568 43.3742 17.3671V26.0168H40ZM62.0048 26.3929C61.1231 26.3929 60.3492 26.2048 59.6834 25.8288C59.0356 25.4527 58.5226 24.9422 58.1448 24.2976C57.7669 23.635 57.5779 22.8738 57.5779 22.0142C57.5779 20.4025 58.2798 19.1669 59.6834 18.3073C61.0871 17.4297 63.3186 16.8209 66.3778 16.4807C66.3598 15.9434 66.2609 15.4598 66.0809 15.03C65.9189 14.5823 65.64 14.2332 65.2441 13.9824C64.8662 13.7138 64.3443 13.5795 63.6785 13.5795C62.9227 13.5795 62.1939 13.7228 61.492 14.0093C60.7902 14.2958 60.1063 14.6451 59.4405 15.0569L58.1718 12.6931C58.7297 12.3528 59.3235 12.0394 59.9534 11.7529C60.6012 11.4484 61.285 11.2067 62.0048 11.0276C62.7428 10.8305 63.5075 10.732 64.2994 10.732C65.5591 10.732 66.6028 10.9828 67.4306 11.4842C68.2584 11.9856 68.8792 12.7199 69.2931 13.687C69.7071 14.636 69.9141 15.8001 69.9141 17.1791V26.0168H67.0257L66.7558 24.3781H66.6478C65.982 24.9333 65.2621 25.4079 64.4883 25.8018C63.7144 26.1958 62.8867 26.3929 62.0048 26.3929ZM63.1386 23.5992C63.7325 23.5992 64.2813 23.4649 64.7852 23.1962C65.3071 22.9097 65.838 22.5157 66.3778 22.0142V18.6833C65.0282 18.8445 63.9574 19.0683 63.1657 19.3549C62.3738 19.6414 61.8069 19.9907 61.465 20.4025C61.1411 20.7965 60.9791 21.2442 60.9791 21.7456C60.9791 22.4082 61.177 22.8829 61.573 23.1694C61.9869 23.4559 62.5088 23.5992 63.1386 23.5992ZM77.4066 26.3929C76.2549 26.3929 75.3282 26.169 74.6264 25.7213C73.9425 25.2557 73.4386 24.6199 73.1147 23.814C72.8088 22.9902 72.6558 22.0412 72.6558 20.9667V13.9018H70.5232V11.2693L72.8717 11.1081L73.2497 7.02506H76.192V11.1081H79.9981V13.9018H76.192V20.9935C76.192 21.8531 76.3629 22.5068 76.7048 22.9544C77.0647 23.3842 77.6046 23.5992 78.3245 23.5992C78.5764 23.5992 78.8374 23.5633 79.1073 23.4917C79.3952 23.42 79.6471 23.3395 79.8631 23.2499L80.4569 25.8288C80.061 25.9541 79.6021 26.0794 79.0802 26.2048C78.5764 26.3301 78.0185 26.3929 77.4066 26.3929ZM81.8122 26.0168V11.1081H85.3483V26.0168H81.8122ZM83.5937 8.50249C82.9459 8.50249 82.433 8.32341 82.055 7.96525C81.6772 7.58918 81.4882 7.09669 81.4882 6.48782C81.4882 5.89684 81.6772 5.42227 82.055 5.06412C82.433 4.68804 82.9459 4.5 83.5937 4.5C84.2056 4.5 84.7094 4.68804 85.1053 5.06412C85.5013 5.42227 85.6992 5.89684 85.6992 6.48782C85.6992 7.09669 85.5013 7.58918 85.1053 7.96525C84.7094 8.32341 84.2056 8.50249 83.5937 8.50249ZM91.7701 26.0168L86.5873 11.1081H90.1774L92.5259 18.8445C92.7419 19.5609 92.9488 20.304 93.1468 21.0741C93.3627 21.8262 93.5787 22.5694 93.7946 23.3037H93.9295C94.1455 22.5694 94.3524 21.8262 94.5504 21.0741C94.7663 20.304 94.9733 19.5609 95.1713 18.8445L97.5467 11.1081H100.975L95.9001 26.0168H91.7701ZM108.286 26.3929C106.9 26.3929 105.65 26.0794 104.534 25.4527C103.418 24.8258 102.528 23.9304 101.862 22.7664C101.214 21.6023 100.89 20.2055 100.89 18.5759C100.89 17.3581 101.079 16.2747 101.457 15.3255C101.853 14.3584 102.375 13.5348 103.022 12.8542C103.688 12.1558 104.426 11.6275 105.236 11.2693C106.064 10.9112 106.918 10.732 107.8 10.732C109.15 10.732 110.284 11.0365 111.201 11.6454C112.119 12.2363 112.812 13.0691 113.28 14.1436C113.748 15.2002 113.982 16.4269 113.982 17.8237C113.982 18.164 113.964 18.4863 113.928 18.7908C113.91 19.0773 113.874 19.3191 113.82 19.516H104.345C104.435 20.3936 104.678 21.1368 105.074 21.7456C105.47 22.3545 105.974 22.8291 106.586 23.1694C107.215 23.4917 107.936 23.6529 108.745 23.6529C109.375 23.6529 109.969 23.5633 110.526 23.3842C111.085 23.1873 111.642 22.9187 112.201 22.5783L113.415 24.7811C112.713 25.2467 111.921 25.6317 111.039 25.9361C110.158 26.2407 109.24 26.3929 108.286 26.3929ZM104.291 17.1253H110.959C110.959 15.9971 110.698 15.1107 110.176 14.4659C109.654 13.8034 108.88 13.472 107.854 13.472C107.297 13.472 106.766 13.6153 106.261 13.9018C105.758 14.1704 105.326 14.5734 104.966 15.1107C104.624 15.6479 104.399 16.3195 104.291 17.1253Z" fill="white"/>
</g>
<defs>
<clipPath id="clip0_290_10">
<rect width="119" height="30" fill="white" transform="translate(0 0.5)"/>
</clipPath>
</defs>
</svg>
