<svg width="36" height="36" viewBox="0 0 36 36" fill="none" xmlns="http://www.w3.org/2000/svg">
<path d="M32.3401 16.11L30.3001 13.74C29.9101 13.29 29.5951 12.45 29.5951 11.85V9.3C29.5951 7.71 28.2901 6.405 26.7001 6.405H24.1501C23.5651 6.405 22.7101 6.09 22.2601 5.7L19.8901 3.66C18.8551 2.775 17.1601 2.775 16.1101 3.66L13.7551 5.715C13.3051 6.09 12.4501 6.405 11.8651 6.405H9.27007C7.68007 6.405 6.37507 7.71 6.37507 9.3V11.865C6.37507 12.45 6.06007 13.29 5.68507 13.74L3.66007 16.125C2.79007 17.16 2.79007 18.84 3.66007 19.875L5.68507 22.26C6.06007 22.71 6.37507 23.55 6.37507 24.135V26.7C6.37507 28.29 7.68007 29.595 9.27007 29.595H11.8651C12.4501 29.595 13.3051 29.91 13.7551 30.3L16.1251 32.34C17.1601 33.225 18.8551 33.225 19.9051 32.34L22.2751 30.3C22.7251 29.91 23.5651 29.595 24.1651 29.595H26.7151C28.3051 29.595 29.6101 28.29 29.6101 26.7V24.15C29.6101 23.565 29.9251 22.71 30.3151 22.26L32.3551 19.89C33.2251 18.855 33.2251 17.145 32.3401 16.11ZM24.2401 15.165L16.9951 22.41C16.7851 22.62 16.5001 22.74 16.2001 22.74C15.9001 22.74 15.6151 22.62 15.4051 22.41L11.7751 18.78C11.3401 18.345 11.3401 17.625 11.7751 17.19C12.2101 16.755 12.9301 16.755 13.3651 17.19L16.2001 20.025L22.6501 13.575C23.0851 13.14 23.8051 13.14 24.2401 13.575C24.6751 14.01 24.6751 14.73 24.2401 15.165Z" fill="url(#paint0_linear_364_7606)"/>
<defs>
<linearGradient id="paint0_linear_364_7606" x1="30.5" y1="27.5" x2="6.5" y2="6.00003" gradientUnits="userSpaceOnUse">
<stop stop-color="#FFBB68"/>
<stop offset="1" stop-color="#F7801E"/>
</linearGradient>
</defs>
</svg>
