<svg width="109" height="32" viewBox="0 0 109 32" fill="none" xmlns="http://www.w3.org/2000/svg">
<path d="M41.5693 26.241V5.49756H20.7961V26.241H41.5693ZM27.7263 12.4178H34.65V19.3316H27.7209L27.7263 12.4178Z" fill="white"/>
<path d="M6.94763 12.4082H13.8724V19.3219H6.94763V12.4082Z" fill="white"/>
<path d="M59.3734 22.3479H56.6963L55.808 19.9186H50.4343L49.5427 22.3523H46.8613L51.799 9.76562H54.4346L59.3734 22.3479ZM51.1766 17.8581H55.057L53.107 12.5727L51.1766 17.8581Z" fill="white"/>
<path d="M69.1419 22.0036C69.1419 23.3046 68.7546 24.3535 67.98 25.1502C67.2061 25.947 66.0714 26.5021 64.6184 26.5021C62.772 26.5021 61.3484 25.6487 60.2999 24.2077L61.6591 22.9233C62.482 23.8517 63.765 24.7921 65.291 24.2719C66.4137 23.8909 66.6546 22.8188 66.6546 22.0645V21.3592H66.5456C66.5314 21.3875 66.5074 21.4289 66.4725 21.4844C66.3983 21.5893 66.3151 21.6876 66.224 21.7783C66.0914 21.919 65.9416 22.0426 65.7782 22.1462C65.5572 22.273 65.3194 22.3683 65.0719 22.4292C64.747 22.5155 64.4118 22.5576 64.0756 22.5543C63.5324 22.5646 62.9939 22.4525 62.5001 22.2264C62.0062 22.0003 61.5697 21.6659 61.2231 21.2482C60.4688 20.3818 60.0917 19.2702 60.0917 17.9132C60.0917 16.5287 60.4757 15.4171 61.2438 14.5783C62.0119 13.7394 62.9838 13.32 64.1596 13.32C64.5456 13.316 64.9302 13.3688 65.3008 13.4768C65.5975 13.5579 65.8781 13.6893 66.1303 13.8653C66.3202 14.0032 66.4975 14.1576 66.66 14.3268C66.7741 14.4411 66.8751 14.5678 66.9609 14.7045L67.0437 14.8721H67.1265L67.5211 13.529H69.1387L69.1419 22.0036ZM66.2066 16.0966C66.0215 15.8732 65.7879 15.6947 65.5235 15.5747C65.2591 15.4548 64.9709 15.3965 64.6806 15.4044C64.3953 15.4003 64.113 15.4636 63.8569 15.5892C63.6008 15.7148 63.3781 15.8991 63.2069 16.1271C62.8203 16.6104 62.6267 17.2224 62.6259 17.9633C62.6252 18.7042 62.8156 19.309 63.1971 19.7777C63.372 20.0026 63.5974 20.1833 63.8551 20.3052C64.1128 20.4272 64.3955 20.487 64.6806 20.4798C64.9714 20.4902 65.2608 20.4342 65.5268 20.3162C65.7927 20.1981 66.0282 20.021 66.2153 19.7984C66.6033 19.3434 66.797 18.7317 66.7963 17.9633C66.797 17.1796 66.6004 16.5574 66.2066 16.0966Z" fill="white"/>
<path d="M78.589 21.2879C77.7104 22.1347 76.635 22.5577 75.3626 22.557C74.0764 22.557 72.994 22.1339 72.1155 21.2879C71.2369 20.4418 70.7977 19.3406 70.7977 17.9845C70.7977 16.6137 71.2369 15.4948 72.1155 14.6277C72.994 13.7606 74.0764 13.3274 75.3626 13.3281C76.6357 13.3281 77.7112 13.7613 78.589 14.6277C79.4668 15.4941 79.9061 16.613 79.9068 17.9845C79.9075 19.3406 79.4683 20.4418 78.589 21.2879ZM76.8668 19.8511C77.2614 19.3751 77.4587 18.7387 77.4587 17.942C77.4587 17.1598 77.2614 16.527 76.8668 16.0438C76.6903 15.814 76.4622 15.6288 76.201 15.5031C75.9397 15.3774 75.6525 15.3147 75.3626 15.32C75.0693 15.3134 74.7786 15.3754 74.5136 15.5011C74.2486 15.6268 74.0168 15.8126 73.8366 16.0438C73.4442 16.527 73.248 17.1598 73.248 17.942C73.248 18.7402 73.4416 19.3766 73.829 19.8511C74.0143 20.0742 74.2466 20.2537 74.5093 20.3769C74.772 20.5001 75.0587 20.564 75.349 20.564C75.6392 20.564 75.9259 20.5001 76.1886 20.3769C76.4513 20.2537 76.6836 20.0742 76.869 19.8511H76.8668Z" fill="white"/>
<path d="M87.2262 15.6563H86.0653C85.4702 15.6563 84.9895 15.8486 84.6233 16.2332C84.257 16.6177 84.0735 17.1387 84.0728 17.7962V22.348H81.5833V13.5371H83.1398L83.494 14.8378H83.6183C84.0746 13.9714 84.8841 13.5378 86.0468 13.5371H87.2284L87.2262 15.6563Z" fill="white"/>
<path d="M88.835 11.7552C88.6975 11.6225 88.5895 11.4625 88.5179 11.2855C88.4464 11.1085 88.4129 10.9184 88.4197 10.7277C88.4132 10.535 88.4467 10.3431 88.5182 10.164C88.5897 9.98488 88.6975 9.82252 88.835 9.68714C88.9711 9.55249 89.1331 9.4468 89.3113 9.37646C89.4894 9.30612 89.68 9.27258 89.8716 9.27789C90.0639 9.27368 90.2552 9.3077 90.4343 9.37795C90.6133 9.44821 90.7766 9.55331 90.9147 9.68714C91.0545 9.82077 91.1646 9.98228 91.2378 10.1612C91.3111 10.3401 91.3458 10.5323 91.3398 10.7255C91.3463 10.9171 91.3117 11.1079 91.2384 11.2851C91.1651 11.4623 91.0547 11.6218 90.9147 11.753C90.6314 12.0185 90.2545 12.1617 89.8661 12.1514C89.6765 12.1566 89.4878 12.1243 89.3108 12.0563C89.1339 11.9883 88.9721 11.8859 88.835 11.7552ZM88.6061 13.538H91.0913V22.3489H88.6006L88.6061 13.538Z" fill="white"/>
<path d="M93.958 21.2561C93.1143 20.3897 92.6925 19.285 92.6925 17.9418C92.6925 16.5987 93.1143 15.4939 93.958 14.6276C94.8017 13.7612 95.9084 13.328 97.2781 13.328C97.7897 13.3224 98.2995 13.3894 98.7921 13.5271C99.2485 13.6599 99.5668 13.7891 99.747 13.9146L100.017 14.1247L99.3731 15.9282C98.8159 15.574 98.1664 15.3919 97.5059 15.4047C97.1957 15.3943 96.8868 15.4508 96.6004 15.5703C96.3139 15.6897 96.0566 15.8693 95.8459 16.0969C95.4179 16.5577 95.2035 17.1745 95.2028 17.9473C95.2028 18.731 95.4171 19.3499 95.8459 19.8042C96.2746 20.2584 96.828 20.4855 97.5059 20.4855C97.8255 20.4857 98.1434 20.4399 98.4499 20.3495C98.6901 20.2862 98.9232 20.1983 99.1453 20.0871L99.3731 19.962L99.9966 21.7448C99.9268 21.8003 99.8266 21.8744 99.6947 21.9625C99.5628 22.0507 99.2663 22.1802 98.803 22.3293C98.3102 22.488 97.7949 22.5659 97.277 22.5601C95.9058 22.5579 94.7995 22.1232 93.958 21.2561Z" fill="white"/>
<path d="M102.105 20.9186C102.251 20.9186 102.395 20.962 102.516 21.0433C102.638 21.1246 102.733 21.2402 102.789 21.3755C102.846 21.5107 102.86 21.6595 102.832 21.8031C102.803 21.9467 102.732 22.0785 102.629 22.1821C102.525 22.2856 102.393 22.3561 102.249 22.3846C102.105 22.4132 101.956 22.3985 101.821 22.3425C101.686 22.2865 101.57 22.1916 101.488 22.0699C101.407 21.9482 101.363 21.8051 101.363 21.6587C101.364 21.4625 101.442 21.2744 101.581 21.1357C101.72 20.9969 101.908 20.9189 102.105 20.9186ZM102.105 20.7607C101.927 20.761 101.753 20.8138 101.605 20.9125C101.458 21.0113 101.343 21.1515 101.275 21.3156C101.207 21.4796 101.189 21.6601 101.224 21.8342C101.259 22.0082 101.344 22.1681 101.47 22.2937C101.596 22.4192 101.756 22.5047 101.93 22.5394C102.104 22.574 102.285 22.5563 102.449 22.4885C102.614 22.4207 102.754 22.3058 102.853 22.1583C102.952 22.0108 103.005 21.8373 103.005 21.6598C103.005 21.4216 102.91 21.1932 102.742 21.0248C102.573 20.8564 102.344 20.7618 102.106 20.7618L102.105 20.7607Z" fill="white"/>
<path d="M101.529 21.4116H101.984V21.5313H101.825V21.9863H101.688V21.5346H101.529V21.4116Z" fill="white"/>
<path d="M102.46 21.6676L102.339 21.8319H102.281L102.159 21.6676V21.9865H102.024V21.415H102.133L102.308 21.6599L102.484 21.415H102.593V21.9865H102.46V21.6676Z" fill="white"/>
</svg>
