<svg width="120" height="32" viewBox="0 0 120 32" fill="none" xmlns="http://www.w3.org/2000/svg">
<g clip-path="url(#clip0_451_488)">
<path d="M67.493 21.6954H64.4507C64.3649 21.6954 64.2898 21.6256 64.2898 21.5342V17.7015H64.2361C64.2361 19.8785 62.5031 22.0825 59.8096 22.0825C56.2415 22.0825 54.0416 18.8411 54.0416 15.4707C54.0416 12.1003 56.2415 8.85889 59.8096 8.85889C62.4977 8.85889 64.2361 11.0628 64.2361 13.2399H64.2898L65.041 9.37493C65.0571 9.29967 65.1214 9.24592 65.1966 9.24592H67.493C67.5788 9.24592 67.654 9.3158 67.654 9.40718V21.5288C67.654 21.6148 67.5842 21.6901 67.493 21.6901V21.6954ZM60.7968 19.2335C63.0718 19.2335 64.2898 17.4435 64.2898 15.4761C64.2898 13.5086 63.0235 11.7186 60.7968 11.7186C58.5701 11.7186 57.4058 13.4011 57.4058 15.4761C57.4058 17.551 58.4682 19.2335 60.7968 19.2335Z" fill="white"/>
<path d="M39.2435 25.6894H42.2857C42.3716 25.6894 42.4467 25.6195 42.4467 25.5281V17.6961H42.5004C42.5004 19.8732 44.2334 22.0771 46.9269 22.0771C50.495 22.0771 52.6949 18.8357 52.6949 15.4653C52.6949 12.0949 50.495 8.85352 46.9269 8.85352C44.2388 8.85352 42.5004 11.0574 42.5004 13.2345H42.4467L41.6955 9.36956C41.6794 9.2943 41.615 9.24055 41.5399 9.24055H39.2435C39.1576 9.24055 39.0825 9.31043 39.0825 9.40181V25.5228C39.0825 25.6088 39.1523 25.684 39.2435 25.684V25.6894ZM45.9397 19.2335C43.6647 19.2335 42.4467 17.4435 42.4467 15.4761C42.4467 13.5086 43.713 11.7186 45.9397 11.7186C48.1664 11.7186 49.3307 13.4011 49.3307 15.4761C49.3307 17.551 48.2683 19.2335 45.9397 19.2335Z" fill="white"/>
<path d="M69.0061 12.0734V9.41252C69.0061 9.32652 69.0758 9.25126 69.1671 9.25126H71.3347V9.22438L72.0805 6.00449C72.0966 5.93461 72.161 5.88086 72.2361 5.88086H74.538C74.6238 5.88086 74.6989 5.95074 74.6989 6.04212V9.25126H78.6801C78.766 9.25126 78.8411 9.32114 78.8411 9.41252V12.0734C78.8411 12.1594 78.7714 12.2346 78.6801 12.2346H74.6989V17.5241C74.6989 18.6368 75.2408 19.1044 75.992 19.1044C77.0276 19.1044 77.3978 18.2121 77.4139 15.8953C77.4139 15.8093 77.4836 15.734 77.5748 15.734H79.9679C80.0591 15.734 80.1288 15.8093 80.1288 15.9007C80.0698 19.9914 77.8968 22.0878 75.316 22.0878C72.7351 22.0878 71.3294 19.8839 71.3294 17.7068V12.24H69.1617C69.0758 12.24 69.0007 12.1701 69.0007 12.0787L69.0061 12.0734Z" fill="white"/>
<path d="M94.6157 21.6954H91.5734C91.4876 21.6954 91.4125 21.6256 91.4125 21.5342V17.7015H91.3588C91.3588 19.8785 89.6257 22.0825 86.9322 22.0825C83.3642 22.0825 81.1643 18.8411 81.1643 15.4707C81.1643 12.1003 83.3642 8.85889 86.9322 8.85889C89.6204 8.85889 91.3588 11.0628 91.3588 13.2399H91.4125L92.1636 9.37493C92.1797 9.29967 92.2441 9.24592 92.3192 9.24592H94.6157C94.7015 9.24592 94.7766 9.3158 94.7766 9.40718V21.5288C94.7766 21.6148 94.7069 21.6901 94.6157 21.6901V21.6954ZM87.9195 19.2335C90.1945 19.2335 91.4125 17.4435 91.4125 15.4761C91.4125 13.5086 90.1462 11.7186 87.9195 11.7186C85.6928 11.7186 84.5285 13.4011 84.5285 15.4761C84.5285 17.551 85.5909 19.2335 87.9195 19.2335Z" fill="white"/>
<path d="M96.3273 21.5342V9.41255C96.3273 9.32655 96.397 9.25129 96.4882 9.25129H98.7847C98.8598 9.25129 98.9242 9.30504 98.9403 9.3803L99.6915 13.2452H99.7451C99.7451 11.0682 101.478 8.86426 104.172 8.86426C105.266 8.86426 106.227 9.1169 107.026 9.55769C107.107 9.60069 107.133 9.7082 107.08 9.78883L105.433 12.369C105.384 12.4497 105.272 12.4712 105.202 12.412C104.778 12.0788 104.215 11.7186 103.19 11.7186C100.963 11.7186 99.6968 13.5086 99.6968 15.4761V21.5395C99.6968 21.6256 99.6271 21.7008 99.5359 21.7008H96.4936C96.4078 21.7008 96.3326 21.6309 96.3326 21.5395L96.3273 21.5342Z" fill="white"/>
<path d="M119.844 21.6954H116.802C116.716 21.6954 116.641 21.6256 116.641 21.5342V17.7015H116.588C116.588 19.8785 114.855 22.0825 112.161 22.0825C108.593 22.0825 106.393 18.8411 106.393 15.4707C106.393 12.1003 108.593 8.85889 112.161 8.85889C114.849 8.85889 116.588 11.0628 116.588 13.2399H116.641L117.392 9.37493C117.408 9.29967 117.473 9.24592 117.548 9.24592H119.844C119.93 9.24592 120.005 9.3158 120.005 9.40718V21.5288C120.005 21.6148 119.936 21.6901 119.844 21.6901V21.6954ZM113.148 19.2335C115.423 19.2335 116.641 17.4435 116.641 15.4761C116.641 13.5086 115.375 11.7186 113.148 11.7186C110.922 11.7186 109.757 13.4011 109.757 15.4761C109.757 17.551 110.82 19.2335 113.148 19.2335Z" fill="white"/>
<path d="M15.9678 0C7.15225 0 0 7.16546 0 15.9973C0 22.2597 3.5949 27.6781 8.82629 30.3067C8.82629 30.3067 8.82629 16.0887 8.82629 15.9973C8.82629 12.0464 12.0241 8.8426 15.9678 8.8426C19.9115 8.8426 23.1093 12.0464 23.1093 15.9973C23.1093 19.9483 19.9115 23.152 15.9678 23.152C15.9678 27.103 12.7753 30.3014 8.83166 30.3067C10.9779 31.3818 13.4031 31.9946 15.9678 31.9946C24.7887 31.9946 31.9356 24.8292 31.9356 15.9973C31.9356 7.16546 24.7887 0 15.9678 0Z" fill="white"/>
<path d="M19.8149 12.6966C19.8149 11.7828 19.0745 11.0464 18.1677 11.0464C17.261 11.0464 16.5205 11.7882 16.5205 12.6966C16.5205 13.6051 17.261 14.3469 18.1677 14.3469C19.0745 14.3469 19.8149 13.6051 19.8149 12.6966Z" fill="white"/>
</g>
<defs>
<clipPath id="clip0_451_488">
<rect width="120" height="32" fill="white"/>
</clipPath>
</defs>
</svg>
