<svg width="348" height="108" viewBox="0 0 348 108" fill="none" xmlns="http://www.w3.org/2000/svg">
<path d="M181.25 62.7728H191.611C192.115 65.0033 193.446 66.5502 195.604 67.4136C197.787 68.277 201.048 68.7087 205.389 68.7087C210.09 68.7087 213.472 68.3129 215.534 67.5215C217.621 66.73 218.664 65.435 218.664 63.6362C218.664 62.6049 218.244 61.7655 217.405 61.118C216.566 60.4704 215.438 60.0147 214.023 59.7509C212.608 59.4631 210.978 59.2593 209.131 59.1393C207.308 59.0194 205.377 58.9235 203.339 58.8515C201.324 58.7556 199.298 58.6357 197.259 58.4918C195.244 58.3239 193.314 58.0241 191.467 57.5924C189.644 57.1367 188.026 56.5372 186.611 55.7937C185.195 55.0502 184.068 53.9949 183.229 52.6279C182.389 51.2368 181.97 49.582 181.97 47.6633C181.97 43.802 183.96 40.924 187.942 39.0294C191.923 37.1107 197.571 36.1514 204.886 36.1514C212.369 36.1514 217.945 37.0867 221.614 38.9574C225.308 40.8041 227.418 43.7301 227.946 47.7353H217.549C217.117 45.7687 215.846 44.4016 213.736 43.6342C211.649 42.8667 208.675 42.483 204.814 42.483C200.689 42.483 197.583 42.8787 195.496 43.6701C193.41 44.4376 192.366 45.6967 192.366 47.4475C192.366 48.4308 192.786 49.2342 193.626 49.8578C194.465 50.4814 195.58 50.9371 196.971 51.2249C198.386 51.4887 200.005 51.6925 201.828 51.8364C203.675 51.9563 205.605 52.0643 207.62 52.1602C209.658 52.2561 211.685 52.4 213.7 52.5919C215.738 52.7598 217.669 53.0716 219.492 53.5273C221.338 53.959 222.957 54.5465 224.348 55.29C225.763 56.0335 226.89 57.0768 227.73 58.4198C228.569 59.7389 228.989 61.3098 228.989 63.1326C228.989 67.3536 227.046 70.3995 223.161 72.2702C219.276 74.1409 213.352 75.0762 205.389 75.0762C197.475 75.0762 191.623 74.1649 187.834 72.3421C184.068 70.4954 181.874 67.3056 181.25 62.7728Z" fill="white"/>
<path d="M164.97 37.2666H175.331V75.1861H164.97V37.2666Z" fill="white"/>
<path d="M106.598 37.2662H116.671V44.4253C119.908 39.005 126.372 36.2949 136.061 36.2949C143.496 36.2949 149.144 37.8538 153.005 40.9717C156.891 44.0655 158.833 48.9941 158.833 55.7574C158.833 62.4727 156.891 67.3892 153.005 70.5071C149.144 73.6009 143.496 75.1478 136.061 75.1478C126.588 75.1478 120.22 72.6656 116.958 67.701V75.1857H106.598V37.2662ZM148.365 57.3762V54.0665C148.365 50.2052 147.081 47.4591 144.515 45.8283C141.949 44.1974 137.992 43.382 132.643 43.382C127.343 43.382 123.422 44.1494 120.88 45.6844C118.361 47.2193 117.054 49.8095 116.958 53.455V57.3762C116.958 61.2375 118.23 63.9956 120.772 65.6505C123.314 67.3053 127.271 68.1327 132.643 68.1327C138.016 68.1327 141.973 67.3173 144.515 65.6864C147.081 64.0556 148.365 61.2855 148.365 57.3762Z" fill="white"/>
<path d="M53.0471 62.7728H63.4079C63.9115 65.0033 65.2426 66.5502 67.4011 67.4136C69.5836 68.277 72.8453 68.7087 77.1863 68.7087C81.887 68.7087 85.2687 68.3129 87.3312 67.5215C89.4178 66.73 90.461 65.435 90.461 63.6362C90.461 62.6049 90.0413 61.7655 89.2019 61.118C88.3625 60.4704 87.2353 60.0147 85.8203 59.7509C84.4053 59.4631 82.7744 59.2593 80.9277 59.1393C79.105 59.0194 77.1743 58.9235 75.1357 58.8515C73.1211 58.7556 71.0945 58.6357 69.056 58.4918C67.0414 58.3239 65.1107 58.0241 63.264 57.5924C61.4413 57.1367 59.8224 56.5372 58.4074 55.7937C56.9924 55.0502 55.8652 53.9949 55.0257 52.6279C54.1863 51.2368 53.7666 49.582 53.7666 47.6633C53.7666 43.802 55.7572 40.924 59.7385 39.0294C63.7197 37.1107 69.3677 36.1514 76.6826 36.1514C84.1654 36.1514 89.7415 37.0867 93.411 38.9574C97.1044 40.8041 99.2149 43.7301 99.7426 47.7353H89.3458C88.9141 45.7687 87.643 44.4016 85.5325 43.6342C83.4459 42.8667 80.472 42.483 76.6107 42.483C72.4856 42.483 69.3797 42.8787 67.2932 43.6701C65.2066 44.4376 64.1634 45.6967 64.1634 47.4475C64.1634 48.4308 64.5831 49.2342 65.4225 49.8578C66.2619 50.4814 67.3771 50.9371 68.7682 51.2249C70.1832 51.4887 71.802 51.6925 73.6248 51.8364C75.4715 51.9563 77.4021 52.0643 79.4167 52.1602C81.4553 52.2561 83.4819 52.4 85.4965 52.5919C87.5351 52.7598 89.4657 53.0716 91.2885 53.5273C93.1352 53.959 94.754 54.5465 96.1451 55.29C97.5601 56.0335 98.6873 57.0768 99.5267 58.4198C100.366 59.7389 100.786 61.3098 100.786 63.1326C100.786 67.3536 98.8432 70.3995 94.9579 72.2702C91.0726 74.1409 85.1487 75.0762 77.1863 75.0762C69.2718 75.0762 63.4199 74.1649 59.6305 72.3421C55.8652 70.4954 53.6707 67.3056 53.0471 62.7728Z" fill="white"/>
<path d="M0 63.9237C0 60.4221 1.31908 57.724 3.95724 55.8293C6.61939 53.9106 10.9244 52.8794 16.8722 52.7355L37.342 52.3038V51.1885C37.342 48.2386 36.3107 46.1281 34.2481 44.857C32.2096 43.5858 28.9718 42.9503 24.5349 42.9503C20.5777 42.9503 17.5438 43.394 15.4332 44.2814C13.3467 45.1687 12.0636 46.6317 11.5839 48.6703H1.33107C2.0026 44.5692 4.23305 41.4873 8.02241 39.4247C11.8118 37.3382 17.3159 36.2949 24.5349 36.2949C32.3774 36.2949 38.1934 37.4941 41.9827 39.8924C45.7721 42.2907 47.6668 46.0561 47.6668 51.1885V74.2485H37.8096V67.3053C36.3227 69.8236 33.8524 71.7662 30.3988 73.1333C26.9692 74.4763 22.7841 75.1478 17.8436 75.1478C14.6058 75.1478 11.8238 74.896 9.49738 74.3924C7.171 73.8887 5.32429 73.1452 3.95724 72.1619C2.59019 71.1546 1.5829 69.9794 0.935348 68.6364C0.311783 67.2933 0 65.7224 0 63.9237ZM20.5417 68.5644C22.988 68.5644 25.1944 68.3846 27.1611 68.0248C29.1517 67.6651 30.9145 67.1015 32.4494 66.334C34.0083 65.5665 35.2075 64.5352 36.0469 63.2401C36.9103 61.9211 37.342 60.3861 37.342 58.6354V57.5921L19.8222 57.9518C16.5365 58.0238 14.1381 58.4555 12.6272 59.2469C11.1402 60.0144 10.3968 61.2615 10.3968 62.9883V63.492C10.3968 65.2667 11.1882 66.5618 12.7711 67.3773C14.354 68.1687 16.9442 68.5644 20.5417 68.5644Z" fill="white"/>
<path fill-rule="evenodd" clip-rule="evenodd" d="M273.651 71.4869C273.814 71.9801 269.946 73.6977 265.012 75.3232C260.078 76.9487 255.945 77.8667 255.783 77.3735C255.62 76.8803 259.488 75.1626 264.422 73.5371C269.357 71.9116 273.489 70.9937 273.651 71.4869ZM273.5 74.082C273.722 74.5516 271.725 75.9583 269.04 77.2238C266.354 78.4892 263.998 79.1342 263.776 78.6646C263.554 78.1949 265.551 76.7883 268.237 75.5228C270.922 74.2573 273.278 73.6123 273.5 74.082ZM273.11 69.2276C273.229 69.7331 268.464 71.2862 262.468 72.6967C256.471 74.1072 251.513 74.8408 251.394 74.3353C251.275 73.8298 256.039 72.2767 262.036 70.8662C268.033 69.4557 272.991 68.7221 273.11 69.2276ZM274.571 76.0126C274.927 76.3908 274.471 77.3979 273.552 78.2618C272.633 79.1258 271.599 79.5194 271.243 79.1413C270.887 78.763 271.343 77.756 272.262 76.892C273.181 76.0281 274.215 75.6344 274.571 76.0126ZM273.579 66.4203C273.663 66.9328 268.207 68.2465 261.394 69.3546C254.581 70.4626 248.989 70.9452 248.906 70.4327C248.822 69.9203 254.278 68.6065 261.091 67.4985C267.904 66.3904 273.496 65.9078 273.579 66.4203ZM273.097 64.106C273.144 64.6231 267.011 65.6083 259.398 66.3062C251.784 67.0043 245.574 67.1509 245.526 66.6337C245.478 66.1166 251.612 65.1314 259.225 64.4335C266.839 63.7354 273.049 63.5888 273.097 64.106ZM273.015 61.7689C273.018 62.2881 266.581 62.7364 258.638 62.7699C250.696 62.8033 244.255 62.4096 244.253 61.8902C244.25 61.371 250.687 60.9226 258.63 60.8892C266.572 60.8557 273.013 61.2495 273.015 61.7689ZM273.374 59.7646C273.322 60.2814 266.873 60.0546 258.97 59.258C251.067 58.4617 244.703 57.3971 244.755 56.8804C244.807 56.3636 251.255 56.5904 259.158 57.3869C267.061 58.1832 273.426 59.2478 273.374 59.7646ZM273.567 57.7808C273.461 58.2891 267.307 57.4389 259.821 55.8819C252.335 54.3247 246.352 52.6503 246.458 52.1419C246.563 51.6337 252.718 52.4839 260.204 54.0408C267.689 55.5981 273.672 57.2725 273.567 57.7808ZM261.279 52.3878C267.89 54.377 273.371 55.5866 273.52 55.0894C273.67 54.5921 268.432 52.5765 261.821 50.5872C255.21 48.598 249.73 47.3884 249.58 47.8856C249.431 48.383 254.668 50.3986 261.279 52.3878ZM262.739 49.4466C268.709 51.7079 273.698 53.1472 273.882 52.6617C274.066 52.1762 269.375 49.9494 263.405 47.6881C257.435 45.4267 252.446 43.9874 252.262 44.4729C252.078 44.9584 256.769 47.1853 262.739 49.4466ZM265.334 44.6146C270.617 47.1615 274.716 49.6052 274.49 50.073C274.264 50.5408 269.799 48.8552 264.517 46.3083C259.234 43.7614 255.135 41.3177 255.361 40.8499C255.587 40.3821 260.052 42.0677 265.334 44.6146ZM267.071 41.7782C271.806 44.7067 275.423 47.4387 275.15 47.8801C274.876 48.3216 270.816 46.3057 266.081 43.3771C261.347 40.4487 257.73 37.7167 258.003 37.2752C258.277 36.8338 262.336 38.8497 267.071 41.7782ZM269.178 39.0502C273.224 42.0692 276.251 44.8537 275.94 45.2697C275.629 45.6858 272.098 43.5758 268.053 40.5568C264.008 37.5379 260.98 34.7534 261.291 34.3373C261.602 33.9213 265.133 36.0313 269.178 39.0502ZM270.893 36.2183C274.327 39.2815 276.831 42.0788 276.485 42.4661C276.139 42.8534 273.075 40.6842 269.641 37.621C266.207 34.5578 263.703 31.7605 264.049 31.3732C264.395 30.9859 267.459 33.1551 270.893 36.2183ZM273.121 33.5376C276.071 36.672 278.157 39.5014 277.778 39.857C277.4 40.2129 274.701 37.9602 271.75 34.8258C268.799 31.6914 266.714 28.862 267.093 28.5064C267.471 28.1508 270.17 30.4032 273.121 33.5376ZM275.038 30.5069C277.42 33.6371 279.015 36.4291 278.602 36.7435C278.188 37.0577 275.922 34.7752 273.54 31.645C271.158 28.5148 269.562 25.7228 269.976 25.4084C270.389 25.0942 272.656 27.3768 275.038 30.5069ZM277.115 27.7863C279.069 30.7645 280.301 33.4095 279.867 33.6943C279.432 33.9789 277.496 31.7953 275.541 28.8171C273.587 25.8389 272.355 23.1939 272.79 22.9091C273.224 22.6245 275.16 24.808 277.115 27.7863ZM279.6 24.6384C281.112 27.4487 281.966 29.926 281.508 30.1717C281.051 30.4176 279.454 28.3385 277.943 25.5284C276.432 22.7181 275.577 20.2408 276.035 19.9951C276.493 19.7493 278.089 21.8284 279.6 24.6384ZM282.524 21.8984C283.638 24.4886 284.155 26.7546 283.677 26.9596C283.2 27.1645 281.91 25.2308 280.796 22.6406C279.682 20.0504 279.166 17.7844 279.643 17.5794C280.12 17.3745 281.41 19.3082 282.524 21.8984ZM285.52 18.9181C286.247 21.2562 286.434 23.2764 285.938 23.4302C285.441 23.5841 284.45 21.8135 283.723 19.4755C282.996 17.1374 282.809 15.1172 283.305 14.9633C283.801 14.8095 284.793 16.5801 285.52 18.9181ZM287.159 12.7718C287.668 12.6705 288.387 14.1222 288.764 16.014C289.141 17.9058 289.033 19.5214 288.524 19.6227C288.014 19.7241 287.296 18.2724 286.919 16.3805C286.542 14.4887 286.649 12.8731 287.159 12.7718ZM290.81 14.2983C290.92 15.7779 291.429 16.9463 291.948 16.9079C292.466 16.8695 292.796 15.6388 292.686 14.1593C292.576 12.6797 292.066 11.5113 291.548 11.5497C291.03 11.5881 290.699 12.8188 290.81 14.2983ZM295.217 12.8981C295.144 14.0084 295.506 14.9363 296.024 14.9704C296.543 15.0045 297.022 14.132 297.095 13.0215C297.167 11.9112 296.806 10.9834 296.287 10.9492C295.769 10.9151 295.29 11.7877 295.217 12.8981ZM299.463 12.6997C299.409 13.5139 299.787 14.2017 300.305 14.2358C300.823 14.2699 301.287 13.6372 301.34 12.823C301.393 12.0087 301.016 11.3209 300.498 11.2869C299.979 11.2528 299.516 11.8854 299.463 12.6997ZM303.675 13.6084C303.641 14.1267 304.034 14.5743 304.553 14.6084C305.071 14.6425 305.519 14.25 305.553 13.7318C305.587 13.2135 305.194 12.7659 304.676 12.7318C304.157 12.6976 303.709 13.0901 303.675 13.6084ZM307.909 14.8614C307.824 15.1454 308.158 15.4974 308.655 15.647C309.153 15.7966 309.626 15.6877 309.711 15.4037C309.797 15.1197 309.463 14.7678 308.965 14.6181C308.467 14.4685 307.995 14.5774 307.909 14.8614Z" fill="url(#paint0_linear_87_559)"/>
<path fill-rule="evenodd" clip-rule="evenodd" d="M330.953 66.0613C330.937 66.5804 328.338 66.9218 325.147 66.8239C321.957 66.726 319.384 66.226 319.399 65.7069C319.415 65.1878 322.014 64.8464 325.205 64.9443C328.395 65.0422 330.969 65.5422 330.953 66.0613ZM330.049 61.7941C330.079 62.3126 327.219 62.896 323.662 63.0975C320.104 63.2991 317.197 63.0419 317.167 62.5234C317.137 62.0049 319.997 61.4214 323.554 61.2199C327.112 61.0187 330.019 61.2756 330.049 61.7941ZM329.289 58.1083C329.355 58.6234 326.245 59.4429 322.342 59.9385C318.439 60.4342 315.222 60.4183 315.157 59.9032C315.091 59.3882 318.202 58.5687 322.104 58.073C326.007 57.5773 329.224 57.5933 329.289 58.1083ZM328.045 54.0632C328.165 54.5687 324.864 55.7773 320.674 56.7629C316.483 57.7485 312.989 58.1377 312.87 57.6322C312.751 57.1267 316.051 55.918 320.242 54.9324C324.432 53.9468 327.926 53.5577 328.045 54.0632ZM327.082 49.9939C327.245 50.4871 323.834 52.054 319.464 53.4938C315.093 54.9336 311.418 55.701 311.256 55.2078C311.093 54.7146 314.504 53.1477 318.874 51.7079C323.244 50.2681 326.919 49.5007 327.082 49.9939ZM325.892 46.1247C326.097 46.6018 322.504 48.6025 317.866 50.5931C313.229 52.5837 309.303 53.8106 309.098 53.3334C308.893 52.8563 312.486 50.8556 317.123 48.865C321.761 46.8744 325.686 45.6475 325.892 46.1247ZM324.988 41.8089C325.235 42.2663 321.459 44.7717 316.555 47.4044C311.652 50.0371 307.477 51.8006 307.231 51.3432C306.985 50.8858 310.761 48.3804 315.664 45.7477C320.568 43.115 324.742 41.3515 324.988 41.8089ZM323.211 37.7332C323.504 38.1626 319.812 41.1838 314.966 44.4814C310.119 47.7792 305.953 50.1045 305.66 49.6751C305.368 49.2457 309.06 46.2245 313.906 42.9269C318.753 39.6291 322.919 37.3038 323.211 37.7332ZM321.62 33.2387C321.949 33.6408 318.209 37.2386 313.266 41.2746C308.323 45.3105 304.05 48.2562 303.721 47.8539C303.392 47.4518 307.133 43.8539 312.075 39.818C317.018 35.7821 321.291 32.8364 321.62 33.2387ZM320.003 29.21C320.359 29.5883 316.573 33.7266 311.545 38.453C306.518 43.1794 302.154 46.7044 301.798 46.3262C301.442 45.9479 305.229 41.8095 310.256 37.0831C315.283 32.3567 319.647 28.8318 320.003 29.21ZM317.875 24.3782C318.263 24.7239 314.451 29.6252 309.361 35.3251C304.271 41.0249 299.831 45.3655 299.443 45.0195C299.055 44.6737 302.867 39.7724 307.957 34.0726C313.047 28.3727 317.487 24.0321 317.875 24.3782ZM314.606 20.526L314.62 20.5334C315.041 20.8369 311.623 26.3047 306.984 32.7463C302.344 39.1878 298.242 44.1635 297.82 43.86C297.398 43.5565 300.817 38.0888 305.456 31.6472C310.002 25.3346 314.034 20.4296 314.59 20.5213L314.606 20.5258L314.606 20.526ZM310.515 17.5864L310.529 17.5924C310.981 17.8502 308.153 23.6454 304.213 30.5364C300.273 37.4274 296.714 42.8048 296.263 42.5471C295.812 42.2893 298.64 36.4941 302.579 29.6031C306.44 22.8498 309.936 17.5503 310.499 17.5838L310.515 17.5865L310.515 17.5864ZM305.768 16.3163L305.782 16.3212C306.254 16.5387 304.043 22.3399 300.844 29.2787C297.645 36.2173 294.668 41.666 294.197 41.4485C293.725 41.2311 295.936 35.4299 299.135 28.4911C302.27 21.6912 305.191 16.3222 305.751 16.3148L305.768 16.3163ZM300.802 17.3458C301.288 17.5299 299.7 22.909 297.256 29.3603C294.811 35.8117 292.436 40.8923 291.95 40.7082C291.464 40.5241 293.052 35.145 295.496 28.6936C297.94 22.2423 300.316 17.1616 300.802 17.3458ZM292.063 27.9509C290.289 33.8468 289.254 38.7477 289.752 38.8974C290.249 39.047 292.091 34.3888 293.865 28.493C295.64 22.5971 296.674 17.6961 296.177 17.5465C295.679 17.3969 293.838 22.055 292.063 27.9509ZM288.516 28.8387C287.459 33.9227 287.015 38.1298 287.523 38.2357C288.032 38.3416 289.301 34.306 290.358 29.2219C291.415 24.1379 291.86 19.9308 291.351 19.8249C290.843 19.719 289.573 23.7547 288.516 28.8387ZM282.094 32.3216C282.599 32.2027 283.244 33.1014 283.534 34.329C283.823 35.5567 283.648 36.6483 283.142 36.7672C282.636 36.8861 281.992 35.9874 281.702 34.7597C281.413 33.5321 281.588 32.4405 282.094 32.3216ZM286.238 26.0972C286.756 26.1402 286.977 28.5725 286.732 31.5296C286.487 34.4869 285.868 36.8491 285.35 36.8061C284.833 36.7631 284.611 34.3308 284.857 31.3737C285.102 28.4166 285.72 26.0542 286.238 26.0972ZM326.281 68.858C323.48 68.5263 321.16 68.6753 321.099 69.1909C321.038 69.7066 323.26 70.3935 326.061 70.7254C328.862 71.0571 331.182 70.9081 331.243 70.3924C331.304 69.8768 329.083 69.1899 326.281 68.858ZM327.561 72.9749C325.172 72.4343 323.142 72.4065 323.028 72.9131C322.913 73.4196 324.757 74.2683 327.147 74.8091C329.536 75.3497 331.566 75.3775 331.68 74.871C331.795 74.3645 329.951 73.5158 327.561 72.9749ZM328.646 77.2891C326.819 76.6688 325.202 76.5648 325.035 77.0563C324.868 77.5481 326.214 78.4493 328.042 79.0697C329.87 79.69 331.487 79.7941 331.654 79.3025C331.821 78.8108 330.474 77.9095 328.646 77.2891ZM328.506 81.699C327.169 81.0542 325.902 80.9106 325.676 81.3784C325.451 81.8461 326.352 82.7479 327.689 83.3928C329.027 84.0376 330.294 84.1812 330.519 83.7134C330.745 83.2456 329.844 82.3439 328.506 81.699ZM327.518 86.214C326.592 85.5957 325.607 85.4443 325.319 85.876C325.03 86.3076 325.547 87.159 326.473 87.7772C327.398 88.3955 328.383 88.5469 328.672 88.1152C328.96 87.6836 328.444 86.8322 327.518 86.214ZM325.568 89.9878C324.889 89.5343 324.105 89.5168 323.816 89.9485C323.528 90.3801 323.844 91.0978 324.523 91.5513C325.202 92.0048 325.987 92.0223 326.275 91.5906C326.563 91.159 326.247 90.4412 325.568 89.9878ZM322.676 93.1792C322.243 92.8907 321.659 93.0066 321.371 93.4385C321.082 93.8702 321.198 94.4542 321.631 94.7427C322.063 95.0312 322.647 94.9153 322.935 94.4834C323.224 94.0517 323.108 93.4677 322.676 93.1792ZM319.474 96.2168C319.271 96.0007 318.799 96.1139 318.421 96.4696C318.042 96.8255 317.901 97.2889 318.104 97.5051C318.308 97.7211 318.779 97.608 319.158 97.2523C319.536 96.8964 319.678 96.433 319.474 96.2168Z" fill="url(#paint1_linear_87_559)"/>
<path fill-rule="evenodd" clip-rule="evenodd" d="M288.836 87.4756C288.667 93.037 288.109 97.5322 287.59 97.5163C287.07 97.5004 286.786 92.9791 286.955 87.4179C287.124 81.8565 287.681 77.3613 288.201 77.3772C288.72 77.3932 289.004 81.9145 288.836 87.4756ZM285.405 87.1787C284.813 92.1882 283.915 96.1997 283.399 96.1385C282.883 96.0774 282.945 91.9668 283.537 86.9573C284.129 81.9477 285.027 77.9363 285.543 77.9974C286.059 78.0585 285.998 82.1691 285.405 87.1787ZM292.159 87.3653C292.594 93.2098 292.528 97.9791 292.009 98.0175C291.491 98.0559 290.718 93.3491 290.282 87.5046C289.846 81.6601 289.913 76.8909 290.431 76.8524C290.949 76.814 291.723 81.5209 292.159 87.3653ZM295.768 87.336C296.795 93.6332 297.212 98.8055 296.7 98.8889C296.187 98.9724 294.938 93.9352 293.911 87.638C292.883 81.341 292.466 76.1685 292.978 76.085C293.491 76.0016 294.74 81.039 295.768 87.336ZM299.046 87.1296C300.63 93.8455 301.504 99.386 300.998 99.505C300.493 99.6239 298.799 94.2762 297.215 87.5603C295.631 80.8444 294.757 75.3039 295.263 75.185C295.769 75.0661 297.463 80.4137 299.046 87.1296ZM302.804 86.6461C305.2 93.9032 306.742 99.9179 306.249 100.08C305.755 100.243 303.413 94.4917 301.017 87.2347C298.621 79.9776 297.079 73.9628 297.572 73.8003C298.066 73.6377 300.408 79.389 302.804 86.646L302.804 86.6461ZM306.155 85.6951C309.419 92.933 311.681 98.9733 311.207 99.1865C310.733 99.3998 307.704 93.705 304.44 86.4671C301.176 79.2292 298.914 73.189 299.388 72.9757C299.862 72.7624 302.891 78.4572 306.155 85.6951ZM309.364 84.2277C313.367 91.0852 316.248 96.8563 315.8 97.118C315.351 97.3794 311.742 92.0325 307.739 85.1747C303.736 78.3172 300.855 72.5461 301.304 72.2844C301.753 72.023 305.362 77.3699 309.364 84.2277ZM312.049 81.8033C316.463 88.0441 319.698 93.3459 319.273 93.6455C318.849 93.9452 314.927 89.129 310.512 82.8883C306.098 76.6475 302.864 71.3457 303.288 71.046C303.713 70.7464 307.635 75.5626 312.049 81.8033ZM313.692 78.5523C318.061 83.8956 321.276 88.4936 320.874 88.8222C320.471 89.1507 316.604 85.0852 312.235 79.7419C307.865 74.3986 304.65 69.8006 305.052 69.472C305.454 69.1434 309.322 73.209 313.692 78.5523ZM316.05 75.9531C320.273 80.4385 323.389 84.3633 323.011 84.7189C322.632 85.0748 318.903 81.7269 314.68 77.2414C310.458 72.756 307.342 68.8312 307.72 68.4756C308.098 68.1197 311.828 71.4676 316.05 75.9531ZM317.054 72.4386C320.931 75.897 323.794 79.0148 323.448 79.4022C323.102 79.7895 319.678 77.3001 315.801 73.8415C311.924 70.3829 309.061 67.2654 309.407 66.8779C309.753 66.4906 313.176 68.98 317.054 72.4386ZM316.685 68.0031C319.125 69.6949 320.863 71.4121 320.567 71.8387C320.271 72.2654 318.053 71.2398 315.613 69.5479C313.173 67.8561 311.435 66.1389 311.731 65.7123C312.027 65.2856 314.245 66.3112 316.685 68.0031ZM315.328 63.5787C314.119 63.215 313.018 63.3234 312.869 63.8207C312.719 64.3181 313.577 65.0157 314.786 65.3795C315.994 65.7432 317.095 65.6348 317.245 65.1374C317.394 64.6401 316.536 63.9424 315.328 63.5787ZM282.067 87.2715C283.003 82.7685 283.35 79.0324 282.841 78.9265C282.333 78.8206 281.161 82.3852 280.225 86.8882C279.289 91.3912 278.942 95.1273 279.451 95.2332C279.959 95.3391 281.131 91.7745 282.067 87.2715ZM278.59 86.8421C279.829 82.7221 280.431 79.2608 279.934 79.1111C279.436 78.9614 278.028 82.18 276.787 86.3C275.548 90.42 274.946 93.8813 275.444 94.031C275.941 94.1807 277.35 90.9621 278.59 86.8421ZM274.938 86.8826C276.458 83.2569 277.302 80.1547 276.823 79.9538C276.344 79.753 274.723 82.5293 273.202 86.1551C271.682 89.7808 270.837 92.883 271.317 93.0838C271.796 93.2847 273.417 90.5084 274.938 86.8828L274.938 86.8826ZM271.486 86.5635C273.089 83.384 274.012 80.6168 273.548 80.3831C273.084 80.1492 271.408 82.5372 269.805 85.7169C268.202 88.8964 267.279 91.6637 267.743 91.8974C268.207 92.1312 269.883 89.7432 271.486 86.5635ZM267.434 86.1281C269.113 83.4157 270.116 80.9954 269.674 80.7222C269.232 80.4489 267.513 82.4261 265.834 85.1385C264.155 87.851 263.152 90.2712 263.594 90.5445C264.036 90.8178 265.755 88.8406 267.434 86.1281ZM263.504 85.1022C265.192 82.8437 266.222 80.7609 265.806 80.45C265.389 80.1392 263.684 81.7183 261.997 83.9768C260.309 86.2354 259.279 88.3182 259.695 88.629C260.112 88.9399 261.817 87.3608 263.504 85.1022ZM259.298 84.1502C260.96 82.3527 261.998 80.6097 261.617 80.2573C261.235 79.9046 259.578 81.0761 257.915 82.8736C256.253 84.6711 255.215 86.4141 255.596 86.7665C255.978 87.1189 257.635 85.9477 259.298 84.1502ZM255.017 82.9309C256.467 81.6594 257.366 80.312 257.023 79.9215C256.68 79.5311 255.226 80.2454 253.775 81.5169C252.325 82.7883 251.427 84.1358 251.769 84.5262C252.112 84.9167 253.566 84.2023 255.017 82.9309ZM251.265 80.6035C252.492 79.7685 253.25 78.7438 252.957 78.3144C252.665 77.8851 251.433 78.214 250.206 79.0487C248.979 79.8837 248.222 80.9084 248.514 81.3378C248.807 81.7671 250.038 81.4382 251.265 80.6035ZM247.847 77.4887C248.846 76.9967 249.469 76.2202 249.239 75.7545C249.009 75.2888 248.013 75.3099 247.014 75.8021C246.016 76.2941 245.393 77.0706 245.623 77.5364C245.853 78.0021 246.849 77.9808 247.847 77.4887ZM245.551 73.9133C246.283 73.5525 246.69 72.8825 246.46 72.4165C246.231 71.9508 245.451 71.8657 244.718 72.2265C243.986 72.5873 243.579 73.2573 243.809 73.7233C244.039 74.189 244.819 74.2741 245.551 73.9133ZM244.231 69.813C244.697 69.5834 244.888 69.0197 244.658 68.5539C244.428 68.0882 243.864 67.8966 243.398 68.1264C242.932 68.356 242.741 68.9197 242.971 69.3855C243.201 69.8512 243.765 70.0428 244.231 69.813ZM243.198 65.5223C243.487 65.4544 243.625 64.9895 243.505 64.484C243.386 63.9785 243.055 63.6239 242.766 63.6918C242.477 63.7598 242.34 64.2247 242.459 64.7302C242.578 65.2357 242.909 65.5903 243.198 65.5223Z" fill="url(#paint2_linear_87_559)"/>
<path d="M283.954 44.5978L286.008 45.2327C294.269 47.7868 301.389 53.1251 306.157 60.3386L-nan -nanL306.157 60.3386L-nan -nanL306.157 60.3386C299.443 66.817 290.727 70.8223 281.439 71.6977L-nan -nanL281.439 71.6977L-nan -nanL281.439 71.6977C279.07 63.3817 279.657 54.5018 283.099 46.5696L283.954 44.5978Z" fill="white"/>
<path d="M283.954 44.5978L286.008 45.2327C294.269 47.7868 301.389 53.1251 306.157 60.3386L-nan -nanL306.157 60.3386L-nan -nanL306.157 60.3386C299.443 66.817 290.727 70.8223 281.439 71.6977L-nan -nanL281.439 71.6977L-nan -nanL281.439 71.6977C279.07 63.3817 279.657 54.5018 283.099 46.5696L283.954 44.5978Z" fill="url(#paint3_linear_87_559)" style="mix-blend-mode:multiply"/>
<defs>
<linearGradient id="paint0_linear_87_559" x1="286.661" y1="1.79668" x2="264.85" y2="79.1426" gradientUnits="userSpaceOnUse">
<stop stop-color="white"/>
<stop offset="0.63" stop-color="white"/>
<stop offset="1" stop-color="white" stop-opacity="0.1"/>
</linearGradient>
<linearGradient id="paint1_linear_87_559" x1="321.55" y1="80.6848" x2="290.047" y2="35.1751" gradientUnits="userSpaceOnUse">
<stop stop-color="white"/>
<stop offset="0.63" stop-color="white"/>
<stop offset="1" stop-color="white" stop-opacity="0.1"/>
</linearGradient>
<linearGradient id="paint2_linear_87_559" x1="245.988" y1="70.5698" x2="312.607" y2="62.515" gradientUnits="userSpaceOnUse">
<stop stop-color="white"/>
<stop offset="0.63" stop-color="white"/>
<stop offset="1" stop-color="white" stop-opacity="0.933333"/>
</linearGradient>
<linearGradient id="paint3_linear_87_559" x1="306.365" y1="72.2149" x2="299.799" y2="41.7981" gradientUnits="userSpaceOnUse">
<stop stop-color="white"/>
<stop offset="0.969733" stop-color="white"/>
</linearGradient>
</defs>
</svg>
