<svg width="253" height="32" viewBox="0 0 253 32" fill="none" xmlns="http://www.w3.org/2000/svg">
<path fill-rule="evenodd" clip-rule="evenodd" d="M0.112409 11.2548L0.224395 22.4974L11.9072 22.6092L23.5901 22.721V25.0258V27.3306H11.802H0.0138935V29.6422V31.9538H14.1175H28.2211V21.0264V10.099H16.433H4.64493V7.36716V4.63531H16.433H28.2211V2.32375V0.012188H14.1108H0L0.112409 11.2548ZM33.975 0.292517C33.8205 0.446341 33.6942 4.77611 33.6942 9.91408C33.6942 18.0445 33.7805 19.2885 34.3602 19.5104C34.7265 19.6508 37.5683 19.7655 40.6753 19.7655H46.3243V25.8597V31.9538H48.6285H50.9322L51.0492 25.9647L51.1658 19.9757L56.4284 19.8727C59.3228 19.8164 62.117 19.671 62.6382 19.5495L63.5854 19.3293V9.67073V0.012188H61.4804C60.3227 0.012188 59.3396 0.05968 59.2954 0.117259C59.2516 0.174838 59.1093 3.53207 58.9797 7.5773L58.7439 14.9323L49.4818 15.0512C44.3877 15.1164 39.7933 15.0655 39.2725 14.9377C38.3353 14.7087 38.3252 14.6292 38.3252 7.35917V0.012188H36.2905C35.1711 0.012188 34.1291 0.138273 33.975 0.292517ZM69.9005 15.983V31.9538H72.216H74.5315V18.2945V4.63531H78.5311H82.5306V11.525C82.5306 18.9544 82.5214 18.925 84.8461 18.925C87.1709 18.925 87.1617 18.9544 87.1617 11.525V4.63531H90.9448H94.7279L94.8391 18.1895L94.9502 31.7436L96.95 31.8718L98.9498 32V16.0061V0.012188H84.4251H69.9005V15.983ZM105.457 0.539224C105.345 0.82922 105.304 7.969 105.365 16.4049L105.475 31.7436L119.684 31.8542L133.893 31.9651V15.9884V0.012188H119.776C108.845 0.012188 105.614 0.131128 105.457 0.539224ZM141.05 15.983V31.9538H143.366H145.681V15.983V0.012188H143.366H141.05V15.983ZM152.838 15.9775V31.9538H166.934H181.029L181.26 31.0081C181.387 30.4882 181.438 23.3485 181.373 15.1424L181.256 0.22233L167.047 0.111795L152.838 0.000840106V15.9775ZM186.181 2.21868L186.308 4.42517L191.255 4.54369L196.202 4.66179V17.6431C196.202 24.7829 196.317 30.9232 196.457 31.2889C196.642 31.7697 197.283 31.9538 198.773 31.9538H200.833V18.2945V4.63531H205.885H210.937V2.32375V0.012188H198.495H186.053L186.181 2.21868ZM217.086 0.677077C216.946 1.04272 216.831 7.93034 216.831 15.983C216.831 24.0356 216.946 30.9232 217.086 31.2889C217.266 31.7554 217.893 31.9538 219.191 31.9538H221.041V15.983V0.012188H219.191C217.893 0.012188 217.266 0.210562 217.086 0.677077ZM226.935 15.983V31.966L239.881 31.8546L252.827 31.7436L252.965 30.537C253.041 29.8734 252.99 28.8807 252.851 28.3305L252.6 27.3306H242.083H231.566V15.983V4.63531H242.083H252.6L252.851 3.63546C252.99 3.0853 253.041 2.09259 252.965 1.42897L252.827 0.22233L239.881 0.111375L226.935 0V15.983ZM129.262 9.25843V13.8816H119.579H109.896V9.25843V4.63531H119.579H129.262V9.25843ZM177.256 15.983V27.3306H167.363H157.469V15.983V4.63531H167.363H177.256V15.983ZM23.5901 16.4112V18.1004L14.2228 17.9873L4.85544 17.8743L4.72492 16.2982L4.59399 14.7221H14.0923H23.5901V16.4112ZM129.262 22.9177V27.3306H119.579H109.896V22.9177V18.5047H119.579H129.262V22.9177Z" fill="#F6F6F6"/>
</svg>
