<svg width="29" height="35" viewBox="0 0 29 35" fill="none" xmlns="http://www.w3.org/2000/svg">
<path fill-rule="evenodd" clip-rule="evenodd" d="M14.5 19.5C19.1944 19.5 23 15.6944 23 11C23 6.30558 19.1944 2.5 14.5 2.5C9.80558 2.5 6 6.30558 6 11C6 15.6944 9.80558 19.5 14.5 19.5ZM25 11C25 16.4621 20.8294 20.95 15.4989 21.4531C15.4996 21.4686 15.5 21.4843 15.5 21.5V25.0225C17.0592 23.1741 19.3925 22 22 22H27.3571C28.2645 22 29 22.7355 29 23.6429V25.5C29 28.8137 26.3137 31.5 23 31.5H15.5V33.5C15.5 34.0523 15.0523 34.5 14.5 34.5C13.9477 34.5 13.5 34.0523 13.5 33.5V31.5H6C2.68629 31.5 0 28.8137 0 25.5V23.6429C0 22.7355 0.735535 22 1.64286 22H7C9.60751 22 11.9408 23.1741 13.5 25.0225V21.5C13.5 21.4843 13.5004 21.4686 13.5011 21.4531C8.17063 20.95 4 16.4621 4 11C4 5.20101 8.70101 0.5 14.5 0.5C20.299 0.5 25 5.20101 25 11ZM15.5764 29.5H23C25.2091 29.5 27 27.7091 27 25.5V24H22C18.7502 24 16.0575 26.3849 15.5764 29.5ZM6 29.5H13.4236C12.9425 26.3849 10.2498 24 7 24H2V25.5C2 27.7091 3.79086 29.5 6 29.5ZM15.5 5C15.5 4.44772 15.0523 4 14.5 4C13.9477 4 13.5 4.44772 13.5 5V5.9995H12.157H10.75C10.1977 5.9995 9.75 6.44722 9.75 6.9995C9.75 7.55178 10.1977 7.9995 10.75 7.9995H11.157V11V14.0005H10.75C10.1977 14.0005 9.75 14.4482 9.75 15.0005C9.75 15.5528 10.1977 16.0005 10.75 16.0005H12.157H13.5V17C13.5 17.5523 13.9477 18 14.5 18C15.0523 18 15.5 17.5523 15.5 17V16.0005H16.8445C18.2324 16.0005 19.25 14.8187 19.25 13.5005V12.5C19.25 11.9514 19.0739 11.4262 18.768 11C19.0739 10.5738 19.25 10.0486 19.25 9.5V8.4995C19.25 7.18135 18.2324 5.9995 16.8445 5.9995H15.5V5ZM13.157 7.9995H14.5H16.8445C17.0076 7.9995 17.25 8.16165 17.25 8.4995V9.5C17.25 9.83856 17.0084 10 16.8445 10H13.157V7.9995ZM13.157 14.0005V12H16.8445C17.0084 12 17.25 12.1614 17.25 12.5V13.5005C17.25 13.8383 17.0076 14.0005 16.8445 14.0005H14.5H13.157Z" fill="url(#paint0_linear_364_7725)"/>
<defs>
<linearGradient id="paint0_linear_364_7725" x1="14.5" y1="0.5" x2="14.5" y2="34.5" gradientUnits="userSpaceOnUse">
<stop stop-color="#F7951E"/>
<stop offset="1" stop-color="#FFDCB0"/>
</linearGradient>
</defs>
</svg>
